<svg xmlns="http://www.w3.org/2000/svg" xmlns:xlink="http://www.w3.org/1999/xlink" width="151" height="49" viewBox="0 0 151 49">
  <defs>
    <clipPath id="clip-sharekhan_logo">
      <rect width="151" height="49"/>
    </clipPath>
  </defs>
  <g id="sharekhan_logo" clip-path="url(#clip-sharekhan_logo)">
    <g id="sharekhan_logo-2" data-name="sharekhan_logo" transform="translate(4 4)">
      <g id="Group_754" data-name="Group 754">
        <path id="Path_838" data-name="Path 838" d="M21.512,40.295c0-1.1.292-1.456,1.327-1.1a16.647,16.647,0,0,0,5.243.777c2.88,0,4.174-.551,4.174-2.266,0-1.36-.841-1.973-2.783-3.14L25.007,31.88a5.8,5.8,0,0,1-3.236-5.275c0-3.461,2.266-5.112,7.152-5.112a13.466,13.466,0,0,1,4.5.647c1.036.324,1.392.517,1.392,1.618v.55c0,1.1-.226,1.424-1.294,1.068a13.483,13.483,0,0,0-4.595-.68c-2.557,0-3.657.518-3.657,2.006,0,1.165.679,1.716,2.038,2.524l4.6,2.815c2.266,1.359,3.851,2.718,3.851,5.663,0,3.625-2.395,5.468-7.734,5.468a16.229,16.229,0,0,1-5.21-.744c-1.068-.324-1.3-.518-1.3-1.618Z" transform="translate(-21.512 -20.166)" fill="#f15a31"/>
        <path id="Path_839" data-name="Path 839" d="M41.171,21.456c0-1.164.292-1.456,1.456-1.456h.421c1.164,0,1.456.292,1.456,1.456v6.8c.938-1.23,2.653-2.006,5.016-2.006,3.236,0,5.728,1.52,5.728,5.6V41.2c0,1.164-.292,1.456-1.457,1.456h-.42c-1.164,0-1.456-.292-1.456-1.456V32.363c0-2.137-1.036-3.01-3.43-3.01-2.492,0-3.98,1-3.98,4.076V41.2c0,1.164-.292,1.456-1.456,1.456h-.421c-1.164,0-1.456-.292-1.456-1.456Z" transform="translate(-23.696 -20)" fill="#f15a31"/>
        <path id="Path_840" data-name="Path 840" d="M73.344,38.611c0,3.56-2.1,5.178-6.892,5.178-4.208,0-6.57-1.554-6.57-4.983,0-3.625,2.556-4.886,6.6-4.886h3.559V32.334c0-2.007-1.521-2.46-3.818-2.46a17.851,17.851,0,0,0-3.4.292c-.972.195-1.2-.065-1.2-1.036v-.453c0-.971.259-1.229,1.164-1.391a15.96,15.96,0,0,1,3.236-.259c4.369,0,7.313,1.262,7.313,5.307Zm-3.3-2.167H66.485c-2.2,0-3.268.647-3.268,2.3,0,1.909,1.521,2.233,3.171,2.233,2.1,0,3.657-.324,3.657-2.524Z" transform="translate(-25.775 -20.781)" fill="#f15a31"/>
        <path id="Path_841" data-name="Path 841" d="M82.364,41.977c0,1.164-.292,1.456-1.456,1.456h-.421c-1.164,0-1.456-.292-1.456-1.456V32.754c0-3.624,1.942-5.727,6.116-5.727a4.593,4.593,0,0,1,.646.032c1.1.129,1.359.42,1.359,1.522v.452c0,1.1-.258,1.293-1.359,1.132a4.592,4.592,0,0,0-.646-.032c-2.266,0-2.783,1-2.783,2.847Z" transform="translate(-27.903 -20.781)" fill="#f15a31"/>
        <path id="Path_842" data-name="Path 842" d="M103.678,35.149c-.13,1.2-.453,1.488-1.65,1.488h-9v.712c0,2.363,1.359,3.3,4.628,3.3a18.711,18.711,0,0,0,4.206-.518c1.068-.258,1.327.032,1.327,1.133v.42c0,1.1-.259,1.3-1.327,1.585a15.937,15.937,0,0,1-4.206.518c-5.372,0-7.961-1.974-7.961-6.924V34.048c0-4.045,1.78-7.021,7.184-7.021,4.466,0,6.86,2.264,6.86,6.7A14.145,14.145,0,0,1,103.678,35.149ZM93.031,33.919H100.6v-.81c0-2.2-1.391-3.2-3.819-3.2s-3.754,1-3.754,3.2Z" transform="translate(-29.088 -20.781)" fill="#f15a31"/>
        <path id="Path_843" data-name="Path 843" d="M108.883,21.456c0-1.164.292-1.456,1.456-1.456h.388c1.165,0,1.457.292,1.457,1.456V41.2c0,1.164-.292,1.456-1.457,1.456h-.388c-1.164,0-1.456-.292-1.456-1.456Zm8.673,6.5a3.247,3.247,0,0,1,3.009-1.359h.55c1.456,0,1.585.259.615,1.359l-4.5,5.048a1.783,1.783,0,0,0-.648,1.165,1.892,1.892,0,0,0,.615,1.132l5.178,5.987c.971,1.1.841,1.359-.615,1.359h-.55a3.248,3.248,0,0,1-3.009-1.359l-3.625-4.239a4.174,4.174,0,0,1-1.3-2.978,3.6,3.6,0,0,1,1.3-2.749Z" transform="translate(-31.22 -20)" fill="#f15a31"/>
        <path id="Path_844" data-name="Path 844" d="M127.193,21.456c0-1.164.292-1.456,1.456-1.456h.421c1.164,0,1.456.292,1.456,1.456v6.8c.938-1.23,2.653-2.006,5.016-2.006,3.236,0,5.728,1.52,5.728,5.6V41.2c0,1.164-.292,1.456-1.457,1.456h-.42c-1.164,0-1.456-.292-1.456-1.456V32.363c0-2.137-1.036-3.01-3.43-3.01-2.492,0-3.98,1-3.98,4.076V41.2c0,1.164-.292,1.456-1.456,1.456h-.421c-1.164,0-1.456-.292-1.456-1.456Z" transform="translate(-33.254 -20)" fill="#f15a31"/>
        <path id="Path_845" data-name="Path 845" d="M159.366,38.611c0,3.56-2.1,5.178-6.892,5.178-4.208,0-6.57-1.554-6.57-4.983,0-3.625,2.556-4.886,6.6-4.886h3.56V32.334c0-2.007-1.521-2.46-3.819-2.46a17.851,17.851,0,0,0-3.4.292c-.972.195-1.2-.065-1.2-1.036v-.453c0-.971.26-1.229,1.165-1.391a15.942,15.942,0,0,1,3.236-.259c4.369,0,7.313,1.262,7.313,5.307Zm-3.3-2.167h-3.56c-2.2,0-3.268.647-3.268,2.3,0,1.909,1.521,2.233,3.171,2.233,2.1,0,3.658-.324,3.658-2.524Z" transform="translate(-35.333 -20.781)" fill="#f15a31"/>
        <path id="Path_846" data-name="Path 846" d="M168.5,41.977c0,1.164-.292,1.456-1.456,1.456h-.42c-1.164,0-1.456-.292-1.456-1.456V33.3c0-3.98,2.2-6.277,7.054-6.277,5.048,0,7.022,2.232,7.022,6.277v8.673c0,1.164-.292,1.456-1.456,1.456h-.42c-1.166,0-1.456-.292-1.456-1.456V33.3c0-2.038-.615-3.171-3.69-3.171-3.042,0-3.722,1.132-3.722,3.171Z" transform="translate(-37.473 -20.781)" fill="#f15a31"/>
      </g>
      <g id="Group_755" data-name="Group 755" transform="translate(34.145 32.69)">
        <path id="Path_847" data-name="Path 847" d="M59.925,57.091a.312.312,0,1,1,.625,0v2.3a1.9,1.9,0,0,1,1.612-.937,2.054,2.054,0,0,1,2.01,2.181v.013a2.06,2.06,0,0,1-2.01,2.2,1.894,1.894,0,0,1-1.612-.9v.526a.309.309,0,0,1-.306.319.317.317,0,0,1-.319-.319Zm3.605,3.572v-.016a1.518,1.518,0,0,0-1.484-1.628,1.568,1.568,0,0,0-1.517,1.621v.013a1.562,1.562,0,0,0,1.517,1.63,1.487,1.487,0,0,0,1.484-1.62" transform="translate(-59.925 -56.776)" fill="#5a5b5e"/>
        <path id="Path_848" data-name="Path 848" d="M66.162,64.178a.288.288,0,0,1-.2-.269.269.269,0,0,1,.273-.264.554.554,0,0,1,.156.028,1.2,1.2,0,0,0,.451.072c.392,0,.622-.232.848-.748l.034-.063-1.762-3.73a.6.6,0,0,1-.037-.172.313.313,0,0,1,.32-.308.332.332,0,0,1,.315.24l1.468,3.31,1.3-3.319a.316.316,0,0,1,.3-.231.312.312,0,0,1,.31.308.529.529,0,0,1-.034.154l-1.645,3.926c-.366.869-.777,1.189-1.406,1.189a1.932,1.932,0,0,1-.693-.124" transform="translate(-60.592 -56.993)" fill="#5a5b5e"/>
        <path id="Path_849" data-name="Path 849" d="M75.639,57.422a.325.325,0,0,1,.319-.328H78.07a2.094,2.094,0,0,1,1.49.507,1.276,1.276,0,0,1,.363.91v.016a1.379,1.379,0,0,1-.9,1.319c.676.206,1.221.592,1.221,1.375v.02c0,.972-.824,1.551-2.065,1.551H75.958a.326.326,0,0,1-.319-.324Zm2.324,2.211c.772,0,1.312-.349,1.312-1.017V58.6c0-.566-.452-.933-1.265-.933H76.277v1.962Zm.228,2.58c.86,0,1.4-.382,1.4-1.015v-.016c0-.623-.517-.979-1.516-.979h-1.8v2.01Z" transform="translate(-61.671 -56.811)" fill="#5a5b5e"/>
        <path id="Path_850" data-name="Path 850" d="M82.724,57.38a.322.322,0,0,1,.321-.313h.086a.384.384,0,0,1,.328.188l3.458,4.41v-4.3a.322.322,0,0,1,.321-.32.315.315,0,0,1,.3.32v5.139a.287.287,0,0,1-.29.3h-.03a.429.429,0,0,1-.336-.192L83.353,58.1v4.405a.315.315,0,1,1-.629,0Z" transform="translate(-62.458 -56.806)" fill="#5a5b5e"/>
        <path id="Path_851" data-name="Path 851" d="M90.528,57.422a.323.323,0,0,1,.313-.328h1.816c1.29,0,2.136.684,2.136,1.811v.011c0,1.231-1.026,1.869-2.239,1.869H91.17v1.723a.325.325,0,0,1-.329.324.32.32,0,0,1-.313-.324ZM92.576,60.2c.944,0,1.566-.508,1.566-1.255v-.018c0-.813-.614-1.237-1.534-1.237H91.17V60.2Z" transform="translate(-63.325 -56.811)" fill="#5a5b5e"/>
        <path id="Path_852" data-name="Path 852" d="M100.507,57.422a.324.324,0,0,1,.318-.328h1.812c1.29,0,2.134.684,2.134,1.811v.011c0,1.231-1.026,1.869-2.236,1.869h-1.383v1.723a.327.327,0,0,1-.327.324.32.32,0,0,1-.318-.324Zm2.048,2.777c.945,0,1.564-.508,1.564-1.255v-.018c0-.813-.61-1.237-1.532-1.237h-1.435V60.2Z" transform="translate(-64.434 -56.811)" fill="#5a5b5e"/>
        <path id="Path_853" data-name="Path 853" d="M105.831,62.362l2.311-5.055a.42.42,0,0,1,.407-.283h.037a.4.4,0,0,1,.395.283l2.316,5.049a.49.49,0,0,1,.039.158.312.312,0,0,1-.311.309.345.345,0,0,1-.317-.236l-.595-1.3h-3.125l-.592,1.325a.323.323,0,0,1-.31.216.292.292,0,0,1-.3-.289.382.382,0,0,1,.043-.172m4.032-1.671-1.314-2.915-1.308,2.915Z" transform="translate(-65.021 -56.804)" fill="#5a5b5e"/>
        <path id="Path_854" data-name="Path 854" d="M113.614,57.422a.326.326,0,0,1,.321-.328h2.132a2.252,2.252,0,0,1,1.617.571,1.573,1.573,0,0,1,.441,1.12v.023a1.654,1.654,0,0,1-1.522,1.65l1.42,1.824a.347.347,0,0,1,.1.23.334.334,0,0,1-.325.319.377.377,0,0,1-.3-.169l-1.6-2.081h-1.638v1.926a.328.328,0,0,1-.324.324.324.324,0,0,1-.321-.324ZM116.006,60c.859,0,1.468-.439,1.468-1.172v-.012c0-.7-.539-1.128-1.462-1.128h-1.753V60Z" transform="translate(-65.89 -56.811)" fill="#5a5b5e"/>
        <path id="Path_855" data-name="Path 855" d="M120.863,57.372a.321.321,0,1,1,.643,0V62.5a.321.321,0,1,1-.643,0Z" transform="translate(-66.696 -56.806)" fill="#5a5b5e"/>
        <path id="Path_856" data-name="Path 856" d="M123.929,57.422a.322.322,0,0,1,.315-.328h2.112a2.078,2.078,0,0,1,1.485.507,1.253,1.253,0,0,1,.37.91v.016a1.381,1.381,0,0,1-.906,1.319c.674.206,1.225.592,1.225,1.375v.02c0,.972-.826,1.551-2.071,1.551h-2.215a.324.324,0,0,1-.315-.324Zm2.321,2.211c.771,0,1.309-.349,1.309-1.017V58.6c0-.566-.448-.933-1.264-.933h-1.732v1.962Zm.227,2.58c.865,0,1.4-.382,1.4-1.015v-.016c0-.623-.521-.979-1.516-.979h-1.8v2.01Z" transform="translate(-67.037 -56.811)" fill="#5a5b5e"/>
        <path id="Path_857" data-name="Path 857" d="M130.251,62.362l2.315-5.055a.42.42,0,0,1,.405-.283H133a.407.407,0,0,1,.4.283l2.314,5.049a.514.514,0,0,1,.039.158.312.312,0,0,1-.312.309.344.344,0,0,1-.316-.236l-.594-1.3H131.41l-.591,1.325a.327.327,0,0,1-.313.216.288.288,0,0,1-.292-.289.381.381,0,0,1,.037-.172m4.03-1.671-1.31-2.915-1.308,2.915Z" transform="translate(-67.735 -56.804)" fill="#5a5b5e"/>
        <path id="Path_858" data-name="Path 858" d="M137.68,62.1a.291.291,0,0,1-.119-.242.312.312,0,0,1,.309-.321.273.273,0,0,1,.191.076,2.621,2.621,0,0,0,1.8.673c.766,0,1.271-.405,1.271-.964V61.3c0-.523-.284-.828-1.481-1.079-1.313-.285-1.913-.707-1.913-1.643v-.019A1.681,1.681,0,0,1,139.613,57a2.9,2.9,0,0,1,1.813.561.341.341,0,0,1,.14.261.312.312,0,0,1-.311.313.285.285,0,0,1-.187-.062,2.369,2.369,0,0,0-1.469-.492c-.743,0-1.216.4-1.216.917v.016c0,.536.294.837,1.546,1.106,1.269.281,1.856.744,1.856,1.615v.013c0,.976-.812,1.614-1.946,1.614a3.327,3.327,0,0,1-2.158-.766" transform="translate(-68.551 -56.801)" fill="#5a5b5e"/>
      </g>
    </g>
  </g>
</svg>
